<?xml version="1.0" ?><svg id="Layer_1" style="enable-background:new 0 0 128 128;" version="1.1" viewBox="0 0 128 128" xml:space="preserve" xmlns="http://www.w3.org/2000/svg" xmlns:xlink="http://www.w3.org/1999/xlink"><style type="text/css">
	.st0{fill-rule:evenodd;clip-rule:evenodd;}
	.st1{fill-rule:evenodd;clip-rule:evenodd;fill:#84D1DB;}
</style><path class="st0" d="M21.7,90.7l-10.4,6c-1,0.6-2.2,0.2-2.7-0.7c-0.6-1-0.2-2.2,0.7-2.7l10.4-6  C20.3,88.4,21,89.6,21.7,90.7L21.7,90.7z M66,2v12c-0.7,0-1.3,0-2,0s-1.3,0-2,0V2c0-1.1,0.9-2,2-2C65.1,0,66,0.9,66,2L66,2z   M40.7,108.3l-6,10.4c-0.6,1-1.8,1.3-2.7,0.7c-1-0.6-1.3-1.8-0.7-2.7l6-10.4C38.4,107,39.6,107.7,40.7,108.3L40.7,108.3z M96.7,11.3  l-6,10.4c-1.1-0.7-2.3-1.4-3.5-2l6-10.4C93.8,8.4,95,8,96,8.6C97,9.1,97.3,10.4,96.7,11.3L96.7,11.3z M19.7,40.7l-10.4-6  C8.4,34.2,8,33,8.6,32c0.6-1,1.8-1.3,2.7-0.7l10.4,6C21,38.4,20.3,39.6,19.7,40.7L19.7,40.7z M66,114v12c0,1.1-0.9,2-2,2  c-1.1,0-2-0.9-2-2v-12c0.7,0,1.3,0,2,0S65.3,114,66,114L66,114z M37.3,21.7l-6-10.4c-0.6-1-0.2-2.2,0.7-2.7c1-0.6,2.2-0.2,2.7,0.7  l6,10.4C39.6,20.3,38.4,21,37.3,21.7L37.3,21.7z M118.7,34.7l-10.4,6c-0.6-1.2-1.3-2.3-2-3.5l10.4-6c1-0.6,2.2-0.2,2.7,0.7  C120,33,119.6,34.2,118.7,34.7L118.7,34.7z M93.3,118.7l-6-10.4c1.2-0.6,2.3-1.3,3.5-2l6,10.4c0.6,1,0.2,2.2-0.7,2.7  C95,120,93.8,119.6,93.3,118.7L93.3,118.7z M14,66H2c-1.1,0-2-0.9-2-2c0-1.1,0.9-2,2-2h12c0,0.7,0,1.3,0,2S14,65.3,14,66L14,66z   M126,66h-12c0-0.7,0-1.3,0-2s0-1.3,0-2h12c1.1,0,2,0.9,2,2C128,65.1,127.1,66,126,66L126,66z M116.7,96.7l-10.4-6  c0.7-1.1,1.4-2.3,2-3.5l10.4,6c1,0.6,1.3,1.8,0.7,2.7C118.9,97,117.6,97.3,116.7,96.7L116.7,96.7z M64,21.8  c23.3,0,42.2,18.9,42.2,42.2S87.3,106.2,64,106.2S21.8,87.3,21.8,64S40.7,21.8,64,21.8L64,21.8z M64,25.8  c-21.1,0-38.2,17.1-38.2,38.2s17.1,38.2,38.2,38.2s38.2-17.1,38.2-38.2S85.1,25.8,64,25.8z" id="XMLID_19_"/><circle class="st1" cx="64" cy="64" id="XMLID_1_" r="38.2"/></svg>